# xmcd
#
# Track frame offsets: 
#        182
#        19777
#        33925
#        46302
#        61100
#        67842
#        79257
#        96312
#        104710
#        109902
#        127470
#        141622
#        150702
#        161660
#        166342
#        169295
#        172855
#        178212
#        181737
#        184150
#        187402
#        199787
#        215990
#        224755
#        230802
#        241392
#        267275
#        281717
#        289465
#        297545
#        308505
#        316500
#        328122
#
# Disc length: 4446 seconds
#
# Revision: 2
# Processed by: cddbd v1.5.2PL0 Copyright (c) Steve Scherf et al.
# Submitted via: ExactAudioCopy v1.0b1
#
DISCID=12115c21
DTITLE=Haydn, Joseph - Divertimenti für Bläser (Consortium Classicum) 
DTITLE=CD 2
DYEAR=1980
DGENRE=Bläserwerk
TTITLE0=Parthia Es-dur - Allegro spirituoso
TTITLE1=Parthia Es-dur - Menuetto
TTITLE2=Parthia Es-dur - Rondo moderato
TTITLE3=Parthia Es-dur - Presto assai
TTITLE4=Divertimento C-dur (Feld-Pathie) Hob.II:7 - Allegro
TTITLE5=Divertimento C-dur (Feld-Pathie) Hob.II:7 - Menuet
TTITLE6=Divertimento C-dur (Feld-Pathie) Hob.II:7 - Adagio
TTITLE7=Divertimento C-dur (Feld-Pathie) Hob.II:7 - Menuet
TTITLE8=Divertimento C-dur (Feld-Pathie) Hob.II:7 - Presto
TTITLE9=Parthia Es-dur Hob. II:Es16 - Allegro assai
TTITLE10=Parthia Es-dur Hob. II:Es16 - Romanze: Andante
TTITLE11=Parthia Es-dur Hob. II:Es16 - Menuett: Allegretto
TTITLE12=Parthia Es-dur Hob. II:Es16 - Rondo: Allegretto
TTITLE13=12 Notturnos Hob.II:D5 - Nr. 6: Grazioso
TTITLE14=12 Notturnos Hob.II:D5 - Nr. 7: Kanon
TTITLE15=12 Notturnos Hob.II:D5 - Nr. 8: Allegretto
TTITLE16=12 Notturnos Hob.II:D5 - Nr. 9: Menuet
TTITLE17=12 Notturnos Hob.II:D5 - Nr. 10: Grazioso
TTITLE18=12 Notturnos Hob.II:D5 - Nr. 11: Allegretto
TTITLE19=12 Notturnos Hob.II:D5 - Nr. 12: Allegretto
TTITLE20=Feldparthie F-dur Hob.II:44 - Marche con spirito
TTITLE21=Feldparthie F-dur Hob.II:44 - Adagio più Andante
TTITLE22=Feldparthie F-dur Hob.II:44 - Minuetto
TTITLE23=Feldparthie F-dur Hob.II:44 - Scherzo
TTITLE24=Suite Es-dur Hob.II:Es17 - Allegro assai
TTITLE25=Suite Es-dur Hob.II:Es17 - Romance
TTITLE26=Suite Es-dur Hob.II:Es17 - Menuetto: Allegro
TTITLE27=Suite Es-dur Hob.II:Es17 - Finale
TTITLE28=Divertimento (Parthia) F-dur Hob.II:23 - Allegro
TTITLE29=Divertimento (Parthia) F-dur Hob.II:23 - Menuet
TTITLE30=Divertimento (Parthia) F-dur Hob.II:23 - Adagio
TTITLE31=Divertimento (Parthia) F-dur Hob.II:23 - Menuet
TTITLE32=Divertimento (Parthia) F-dur Hob.II:23 - Finale: Presto
EXTD=
EXTT0=
EXTT1=
EXTT2=
EXTT3=
EXTT4=
EXTT5=
EXTT6=
EXTT7=
EXTT8=
EXTT9=
EXTT10=
EXTT11=
EXTT12=
EXTT13=
EXTT14=
EXTT15=
EXTT16=
EXTT17=
EXTT18=
EXTT19=
EXTT20=
EXTT21=
EXTT22=
EXTT23=
EXTT24=
EXTT25=
EXTT26=
EXTT27=
EXTT28=
EXTT29=
EXTT30=
EXTT31=
EXTT32=
PLAYORDER=
